<svg width="640" height="360" viewBox="0 0 640 360" fill="none" xmlns="http://www.w3.org/2000/svg">
  <rect width="640" height="360" rx="36" fill="url(#paint0_linear_801_12)"/>
  <path d="M0 236C75 220 115 205 188 220C242 231 283 272 355 272C426 272 469 213 548 213C589 213 618 223 640 230V360H0V236Z" fill="#FFF8EF"/>
  <path d="M0 269C81 249 122 246 189 261C254 276 309 318 378 318C453 318 491 264 565 264C596 264 620 270 640 280V360H0V269Z" fill="#43AB95" fill-opacity="0.28"/>
  <circle cx="494" cy="88" r="38" fill="#FFF4D6"/>
  <path d="M86 249C138 194 205 170 267 170C362 170 411 238 503 238" stroke="#17302A" stroke-width="10" stroke-linecap="round"/>
  <path d="M224 248L276 204H335L372 230H438" stroke="#17302A" stroke-width="10" stroke-linecap="round" stroke-linejoin="round"/>
  <circle cx="200" cy="257" r="30" fill="#17302A"/>
  <circle cx="200" cy="257" r="16" fill="#FFF8EF"/>
  <circle cx="446" cy="257" r="30" fill="#17302A"/>
  <circle cx="446" cy="257" r="16" fill="#FFF8EF"/>
  <defs>
    <linearGradient id="paint0_linear_801_12" x1="320" y1="0" x2="320" y2="360" gradientUnits="userSpaceOnUse">
      <stop stop-color="#A7E2D8"/>
      <stop offset="1" stop-color="#FFE2BB"/>
    </linearGradient>
  </defs>
</svg>
